<svg enable-background="new 0 0 578 462" height="607" viewBox="0 0 755 607" width="755" xmlns="http://www.w3.org/2000/svg"><path d="m225.38019931 585.25-26.76947975-35.25-43.88965252-50.32304453-50.22106704-40.08825815-56.75-35.99624535-24.75-12.99700723 15.5-74.59544474 15.5-77.16473462 1.50999789-2.83526538 20.25 9.42362932 18.74000211 9.42362932 29.1107488 29.32637068 29.1107488 29.32637068 13.21456707 21.25 13.93453846 21.25 97.45721441-102 121.17218248-114.48147846 89-69.95668712 114.97340927-79.36892397 57.07066107 71.30708955 64.61089027 81.83779648 8.81357262 12-62.25 36.09265697-62.21853323 34.93045345-65.5 45.95786393-164.23345065 127.85615825-44.73345065 40.32507092-37.60103891 42.5-52.76654935 63.22553719-16.17496365 20.75z" fill="#21b04b"/></svg>