<?xml version="1.0" encoding="UTF-8"?>
<!-- Generated by Pixelmator Pro 3.3.6 -->
<svg width="297" height="325" viewBox="0 0 297 325" xmlns="http://www.w3.org/2000/svg">
    <g id="Group">
        <path id="Path" fill="#ffffff" fill-rule="evenodd" stroke="#929292" stroke-width="0.705453" d="M 40 320 L 39 134 L 285 26 L 285 212 L 40 320 Z"/>
        <g id="g1">
            <path id="path1" fill="#ffffff" stroke="#929292" stroke-width="0.732892" d="M 37.993477 169.978836 L 14.857076 156.438828 L 14.857076 138.970474 L 37.993477 152.510483 Z"/>
            <path id="path2" fill="#ffffff" stroke="#929292" stroke-width="0.732892" d="M 38.000378 206.771469 L 14.855859 193.226715 L 14.855859 175.758362 L 38.000378 189.303101 Z"/>
            <path id="path3" fill="#ffffff" stroke="#929292" stroke-width="0.732892" d="M 38.000378 282.510681 L 14.855859 268.965942 L 14.855859 251.497574 L 38.000378 265.042328 Z"/>
            <path id="path4" fill="#ffffff" stroke="#929292" stroke-width="0.732892" d="M 38.000378 245.193481 L 14.855859 231.648727 L 14.855859 214.180359 L 38.000378 227.725113 Z"/>
            <path id="path5" fill="#ffffff" stroke="#929292" stroke-width="0.732892" d="M 38.000378 319.993835 L 14.855859 306.449097 L 14.855859 288.980713 L 38.000378 302.525482 Z"/>
            <path id="path6" fill="#ffffff" stroke="#929292" stroke-width="0.732892" d="M 37.888248 150.500824 L 14.751844 136.960831 L 14.751844 119.492462 L 37.888248 133.032471 Z"/>
            <path id="path7" fill="#ffffff" stroke="#929292" stroke-width="0.732892" d="M 37.895149 188.293488 L 14.750628 174.748734 L 14.750628 157.28038 L 37.895149 170.825134 Z"/>
            <path id="path8" fill="#ffffff" stroke="#929292" stroke-width="0.732892" d="M 37.895149 226.032684 L 14.750628 212.487946 L 14.750628 195.019608 L 37.895149 208.564346 Z"/>
            <path id="path9" fill="#ffffff" stroke="#929292" stroke-width="0.732892" d="M 37.895149 263.715485 L 14.750628 250.170731 L 14.750628 232.702393 L 37.895149 246.247131 Z"/>
            <path id="path10" fill="#ffffff" stroke="#929292" stroke-width="0.732892" d="M 37.895149 301.515839 L 14.750628 287.9711 L 14.750628 270.502747 L 37.895149 284.047485 Z"/>
        </g>
        <g id="g2">
            <path id="path11" fill="#ffffff" stroke="#929292" stroke-width="0.705453" d="M 14.747831 119.487762 L 62.785431 98.412231 L 85.927666 111.973282 L 37.890068 133.048813 Z"/>
            <path id="path12" fill="#ffffff" stroke="#929292" stroke-width="0.705453" d="M 64.707016 97.561157 L 112.744606 76.485626 L 135.886841 90.046677 L 87.849243 111.122208 Z"/>
            <path id="path13" fill="#ffffff" stroke="#929292" stroke-width="0.705453" d="M 114.660919 75.660309 L 162.698517 54.584778 L 185.840759 68.145844 L 137.803162 89.221359 Z"/>
            <path id="path14" fill="#ffffff" stroke="#929292" stroke-width="0.705453" d="M 164.628784 53.720642 L 212.666382 32.645142 L 235.808624 46.206177 L 187.771027 67.281708 Z"/>
            <path id="path15" fill="#ffffff" stroke="#929292" stroke-width="0.705453" d="M 214.578293 31.803467 L 262.615906 10.727936 L 285.758118 24.288971 L 237.720535 45.364502 Z"/>
        </g>
    </g>
</svg>
