<svg height="900" viewBox="0 0 900 900" width="900" xmlns="http://www.w3.org/2000/svg"><g stroke="#fff"><path d="m697.999878 751h19c22.09137 0 40-17.908569 40-40v-139.058472m-83.999878-425.941528h-25.632446-460.417633c-22.0914 0-40 17.90863-40 40v525c0 22.091431 17.9086 40 40 40h383.105011" fill="none" stroke-linecap="round" stroke-width="31.037142"/><path d="m147 448h242v-70" fill="none" stroke-linecap="round" stroke-width="31.037142"/><path d="m389 297v-151" fill="none" stroke-linecap="round" stroke-width="31.037142"/><path d="m389 713v38" fill="none" stroke-linecap="round" stroke-width="31.037142"/><g fill="#fff" stroke-linecap="square" stroke-linejoin="bevel"><path d="m399.584534 572.336304 42.045227-93.878022c-7.341309 84.663544 53.370392 178.099701 153.579101 153.57663l-103.47763 32.447937-103.665558 11.518372z" fill-opacity=".415225" stroke-width="28.549976"/><path d="m712 204-275 279 12.435089 64.541138 270.688263-280.287903-4.123352-57.253235" fill-opacity=".452525" stroke-width="26.545362"/><path d="m720.046082 267.253235 76.788513 76.788635-270.687866 280.287964-76.788514-76.788696z" fill-opacity=".452525" stroke-width="26.545362"/><path d="m860 353-264.687927 279.007568-69.111023-7.678833 270.687927-280.287902 59.111023 5.959167" fill-opacity=".452525" stroke-width="26.545362"/><path d="m390.563965 653.18396 9.373291-20.643189 34.238373 33.771485-23.068177 7.134765-23.111602 2.532837z" fill-opacity=".038717" stroke-width="12.545362"/><path d="m865.945313 351.75-69.109375-7.677734-76.791016-76.789063-7.677734-69.111328 69.109375 7.679688 76.791015 76.789062zm-47.333985-47.414062-2.945312-26.457032-29.394532-29.396484-26.458984-2.939453 2.945313 26.455078 29.396484 29.398437z" fill-opacity=".806414" fill-rule="evenodd" stroke-width="28.549974"/></g></g></svg>