<svg height="900" viewBox="0 0 900 900" width="900" xmlns="http://www.w3.org/2000/svg"><g fill="none" stroke="#fff" stroke-linecap="round" stroke-width="31.037142"><path d="m697.999878 751h19c22.09137 0 40-17.908569 40-40v-139.058472m-83.999878-425.941528h-25.632446-460.417633c-22.0914 0-40 17.90863-40 40v525c0 22.091431 17.9086 40 40 40h383.105011"/><path d="m147 448h242v-70"/><path d="m389 297v-151"/><path d="m389 713v38"/></g><path d="m695.918884 268.776123 100.909485 101.387268-255.410278 256.681213-100.851349-101.386718zm177.475647-24.443848-44.998047-45.237243c-17.401916-17.460022-45.635009-17.460022-63.095092 0l-43.0943 43.332336 100.890137 101.387268 50.297302-50.51532c13.492859-13.551025 13.492859-35.416076 0-48.967041zm-485.624603 423.623047c-.87677 3.873963.309998 7.925904 3.134033 10.717835 2.824036 2.792541 6.890534 3.930908 10.753601 3.01178l112.438141-27.380555-100.851349-101.406616-25.474426 115.076904z" fill="#fff"/></svg>