<svg height="112" viewBox="0 0 112 112" width="112" xmlns="http://www.w3.org/2000/svg"><g fill="#fff" fill-rule="evenodd"><path d="m81 82.5c0-9.112701-7.387299-16.5-16.5-16.5-9.112698 0-16.5 7.387299-16.5 16.5s7.387302 16.5 16.5 16.5c9.112701 0 16.5-7.387299 16.5-16.5z"/><path d="m56.315155 29.749321c1.298271 10.106636 10.543777 17.247223 20.650421 15.948952 10.106636-1.298271 17.247223-10.543778 15.948952-20.650421-1.298271-10.106636-10.543778-17.247231-20.650414-15.948952-10.106639 1.298271-17.247234 10.543777-15.948959 20.650421z"/><path d="m81.1875 50.925781c-4.813141.006352-9.29377-1.870414-12.634766-5.005859 3.496788 2.200062 7.750382 3.245209 12.167969 2.677734 10.106629-1.298271 17.24749-10.543762 15.949219-20.65039-.56749-4.417717-2.655403-8.268479-5.667969-11.095703 4.503212 2.833274 7.751625 7.582443 8.482422 13.271484 1.298271 10.106636-5.84063 19.352119-15.947266 20.650391-.789581.101428-1.573921.151321-2.349609.152343z" opacity=".753648"/><path d="m87.757813 56c-4.809281.006348-9.286812-1.867142-12.626954-4.998047 3.495232 2.196537 7.746025 3.23695 12.160157 2.669922 10.106628-1.298271 17.24749-10.543762 15.949218-20.650391-.567047-4.414268-2.649437-8.263229-5.658203-11.089843 4.498207 2.833984 7.744332 7.58065 8.47461 13.265625 1.298271 10.106636-5.842598 19.352119-15.949219 20.65039-.789581.101429-1.573921.151322-2.349609.152344z" opacity=".499189"/><path d="m43 47.5c0-9.664986-7.835014-17.5-17.5-17.5-9.664984 0-17.5 7.835014-17.5 17.5 0 9.664982 7.835016 17.5 17.5 17.5 9.664986 0 17.5-7.835018 17.5-17.5z"/></g></svg>