<?xml version="1.0" encoding="UTF-8"?>
<!-- Generated by Pixelmator Pro 3.3.6 -->
<svg width="112" height="112" viewBox="0 0 112 112" xmlns="http://www.w3.org/2000/svg">
    <path id="Ellipse-copy" fill="#ffffff" fill-rule="evenodd" stroke="none" d="M 89 87 C 89 74.849731 79.150269 65 67 65 C 54.849735 65 45 74.849731 45 87 C 45 99.150269 54.849735 109 67 109 C 79.150269 109 89 99.150269 89 87 Z"/>
    <g id="Group">
        <path id="Ellipse-copy-5" fill="#ffffff" fill-rule="evenodd" stroke="none" d="M 48.344475 29.751953 C 49.892544 41.803192 60.916965 50.317696 72.968208 48.769623 C 85.019447 47.22155 93.533951 36.197136 91.985878 24.145889 C 90.437805 12.09465 79.413391 3.580147 67.362144 5.12822 C 55.310905 6.676292 46.796402 17.700714 48.344475 29.751953 Z"/>
        <g id="g1">
            <path id="Ellipse-copy-4" fill="#ffffff" fill-rule="evenodd" stroke="none" opacity="0.753648" d="M 78.001953 55.001953 C 72.262489 55.009529 66.919426 52.772209 62.935547 49.033203 C 67.105492 51.657375 72.176964 52.90332 77.445313 52.226563 C 89.496544 50.678493 98.010956 39.654739 96.462891 27.603516 C 95.78624 22.336014 93.298996 17.744209 89.707031 14.373047 C 95.075752 17.751602 98.948997 23.414383 99.820313 30.197266 C 101.368385 42.248489 92.853958 53.272243 80.802734 54.820313 C 79.861229 54.941254 78.926895 55.000732 78.001953 55.001953 Z"/>
            <path id="Ellipse-copy-6" fill="#ffffff" fill-rule="evenodd" stroke="none" opacity="0.499189" d="M 85.835938 61.052734 C 80.096474 61.060307 74.75341 58.82299 70.769531 55.083984 C 74.939484 57.708168 80.010933 58.956055 85.279297 58.279297 C 97.330521 56.731224 105.844948 45.705521 104.296875 33.654297 C 103.620094 28.385803 101.132118 23.793221 97.539063 20.421875 C 102.909676 23.800163 106.784737 29.463623 107.65625 36.248047 C 109.204323 48.299278 100.689896 59.323021 88.638672 60.871094 C 87.697166 60.992035 86.76088 61.051514 85.835938 61.052734 Z"/>
        </g>
    </g>
    <path id="Ellipse-copy-3" fill="#ffffff" fill-rule="evenodd" stroke="none" d="M 47 52 C 47 39.849731 37.150265 30 25 30 C 12.849735 30 3 39.849731 3 52 C 3 64.150269 12.849735 74 25 74 C 37.150265 74 47 64.150269 47 52 Z"/>
</svg>
