<?xml version="1.0" encoding="UTF-8"?>
<!-- Generated by Pixelmator Pro 3.3.6 -->
<svg width="64" height="47" viewBox="0 0 64 47" xmlns="http://www.w3.org/2000/svg">
    <path id="path59491" fill="#000000" stroke="none" d="M 8.664651 0.626797 C 5.143918 0.597462 1.529288 2.147274 0.470818 5.041466 C -1.10212 8.53455 1.422225 12.614433 5.731347 13.87154 C 5.745428 13.87521 5.76481 13.867867 5.777336 13.87154 C 10.47823 15.574808 16.327284 16.406099 21.421688 21.690285 L 23.329805 23.673708 L 21.60811 25.431889 C 16.499447 30.706541 10.669591 31.519674 5.964673 33.214607 C 5.954158 33.219833 5.930205 33.208191 5.918684 33.214607 C 1.621082 34.458603 -0.872451 38.520699 0.658064 42.005714 C 0.663367 42.016533 0.652854 42.032757 0.658064 42.042751 C 1.965769 45.571682 7.100492 47.133049 11.227214 46.195793 C 11.240746 46.193222 11.259581 46.198353 11.273109 46.195793 C 15.498759 45.457184 18.957779 42.010853 17.978119 38.524643 C 17.494553 36.806236 16.876225 36.008324 16.302874 35.530891 C 16.016153 35.294102 15.766553 35.143394 15.604176 35.006802 C 15.44436 34.870026 14.763947 34.487198 14.763947 34.487198 C 15.184245 34.18047 15.429823 34.033424 15.791148 33.809189 C 16.331125 33.45644 17.274212 33.022919 18.491402 32.500473 C 20.905481 31.461552 24.462238 29.997545 28.547634 27.637253 C 35.937443 31.847954 45.540558 37.305031 50.847996 40.319221 C 56.155609 43.335152 61.589027 41.815315 63.837254 40.431332 L 35.371868 23.682783 L 64 6.768299 C 59.56242 4.024731 54.498737 5.185944 51.125935 6.837975 C 43.626682 11.101563 36.105129 15.345263 28.592436 19.596024 C 25.166788 17.719028 21.489529 15.997423 18.303059 14.620316 C 17.084223 14.094666 16.144245 13.665363 15.603263 13.310871 C 15.332816 13.13385 14.648656 12.750015 14.648656 12.750015 C 15.273204 12.384613 15.935423 11.710724 16.417892 11.197086 C 16.898258 10.682899 17.465937 9.922104 17.791241 8.596153 C 18.651859 5.091976 15.310782 1.634735 11.086232 0.889435 C 10.268495 0.711227 9.387029 0.683723 8.66392 0.629456 Z M 8.199189 3.583782 C 9.770023 3.51017 11.391969 3.940845 12.436358 4.781391 C 13.998781 6.039963 14.297478 7.774315 13.692771 9.196335 C 13.090164 10.618454 11.643671 11.669655 9.596128 11.665077 L 9.550229 11.665077 C 7.674023 11.752991 5.844262 10.883289 4.754981 9.607304 C 3.6657 8.332417 3.35594 6.744835 4.430135 5.379829 L 4.430135 5.342152 C 5.170524 4.208988 6.628537 3.657391 8.199189 3.583782 Z M 9.410801 35.421623 C 9.549683 35.418499 9.693316 35.416397 9.783648 35.421623 C 11.830733 35.421623 13.281342 36.469894 13.880837 37.8899 C 14.480335 39.312016 14.189409 41.049114 12.623421 42.304752 C 11.578938 43.141998 9.912654 43.612736 8.340263 43.53949 C 6.767416 43.466057 5.354387 42.878716 4.61601 41.742344 L 4.569563 41.705765 C 3.5345 40.3811 3.834295 38.883629 4.848879 37.629002 C 5.861268 36.372902 7.601885 35.447289 9.410801 35.421623 Z"/>
    <g id="g23"/>
</svg>
