<svg height="100" viewBox="0 0 100 100" width="100" xmlns="http://www.w3.org/2000/svg"><g fill-rule="evenodd"><path d="m30.453913 34.600853h10.263593v-10.497261h42.757576v52.484405h-83.813615v-10.497024h10.264148v-10.496784h10.264222v-10.496304h10.264076z" fill="#be9753"/><path d="m66.084656 34.600853h10.26432v-10.497261h22.651024v52.484405h-63.707329v-10.497024h10.2636v-10.496784h10.264072v-10.496304h10.264313z" fill="#946a1e"/><path d="m-.338533 66.090973h49.119917v10.497024h-49.119917z" fill="#b1801d"/><path d="m9.925615 55.594189h49.120085v10.496784c-16.373875 0-32.746788 0-49.120085 0 0-3.499008 0-6.997536 0-10.496784" fill="#be881b"/><path d="m20.189837 45.097885h49.119947v10.496304c-16.373398 0-32.746792 0-49.119947 0 0-3.499008 0-6.99778 0-10.496304" fill="#c98f1a"/><path d="m30.453913 34.600853h49.119467v10.497032c-16.372921 0-32.746071 0-49.119467 0 0-3.499733 0-6.998257 0-10.497032" fill="#d39617"/><path d="m40.717506 24.103592h49.120194v10.497261h-49.120194z" fill="#df9e14"/></g></svg>