<svg height="210" viewBox="0 0 1434 210" width="1434" xmlns="http://www.w3.org/2000/svg"><g fill-rule="evenodd"><path d="m193.91333 175.84137h1191.08667v23.40271h-1191.08667z" fill="#f9eb13"/><g fill="#68623c"><path d="m419.762665 199.242676h3.450683c0-1.949341 0-3.899964 0-5.850647-1.150695 0-2.300018 0-3.450683 0zm-11.849335 0h3.447998c0-1.949341 0-3.899964 0-5.850647-1.149322 0-2.298675 0-3.447998 0zm-71.102661 0h3.44931c0-3.899964 0-7.799988 0-11.701294-1.150635 0-2.299988 0-3.44931 0zm-59.252014 0h3.449341c0-3.899964 0-7.799988 0-11.701294-1.149353 0-2.299988 0-3.449341 0zm-59.251984 0h3.449326v-11.701294h-3.449326zm237.006653 0h3.450653v-11.701294h-3.450653zm-59.250671 0h3.44934c0-3.899964 0-7.799988 0-11.701294-1.150665 0-2.30133 0-3.44934 0zm-11.850647 0h3.44931c0-1.949341 0-3.899964 0-5.850647-1.149323 0-2.299988 0-3.44931 0zm-11.850678 0h3.449341c0-1.949341 0-3.899964 0-5.850647-1.149353 0-2.299988 0-3.449341 0zm-11.849335 0h3.449311c0-1.949341 0-3.899964 0-5.850647-1.150635 0-2.301331 0-3.449311 0zm-11.850677 0h3.449341c0-1.949341 0-3.899964 0-5.850647-1.149323 0-2.301331 0-3.449341 0zm-23.701325 0h3.449341c0-1.949341 0-3.899964 0-5.850647-1.149353 0-2.298675 0-3.449341 0zm-11.850647 0h3.449311c0-1.949341 0-3.899964 0-5.850647-1.149323 0-2.298676 0-3.449311 0zm-11.850708 0h3.449372c0-1.949341 0-3.899964 0-5.850647-1.149353 0-2.298676 0-3.449372 0zm-11.849304 0h3.449311c0-1.949341 0-3.899964 0-5.850647-1.150635 0-2.301331 0-3.449311 0zm-23.702667 0h3.450653c0-1.949341 0-3.899964 0-5.850647-1.149322 0-2.298675 0-3.450653 0zm-11.849335 0h3.449341c0-1.949341 0-3.899964 0-5.850647-1.149322 0-2.300018 0-3.449341 0zm-11.850677 0h3.450683c0-1.949341 0-3.899964 0-5.850647-1.150665 0-2.299987 0-3.450683 0zm-11.84932 0h3.449341c0-1.949341 0-3.899964 0-5.850647-1.149338 0-2.300003 0-3.449341 0zm213.306656 0h3.450684c0-1.949341 0-3.899964 0-5.850647-1.152008 0-2.301331 0-3.450684 0zm-11.850647 0h3.450653v-5.850647h-3.450653z"/><path d="m659.762695 199.242676h3.450684c0-1.949341 0-3.899964 0-5.850647-1.150696 0-2.300049 0-3.450684 0zm-11.849365 0h3.447998c0-1.949341 0-3.899964 0-5.850647-1.149292 0-2.298645 0-3.447998 0zm-71.102661 0h3.449341c0-3.899964 0-7.799988 0-11.701294-1.150635 0-2.299988 0-3.449341 0zm-59.252014 0h3.449341c0-3.899964 0-7.799988 0-11.701294-1.149353 0-2.299988 0-3.449341 0zm-59.251984 0h3.449341v-11.701294h-3.449341zm237.006683 0h3.450623v-11.701294h-3.450623zm-59.250671 0h3.449341c0-3.899964 0-7.799988 0-11.701294-1.150696 0-2.301331 0-3.449341 0zm-11.850647 0h3.44928c0-1.949341 0-3.899964 0-5.850647-1.149292 0-2.299988 0-3.44928 0zm-11.850708 0h3.449341c0-1.949341 0-3.899964 0-5.850647-1.149353 0-2.299988 0-3.449341 0zm-11.849304 0h3.44928c0-1.949341 0-3.899964 0-5.850647-1.150635 0-2.301331 0-3.44928 0zm-11.850708 0h3.449341c0-1.949341 0-3.899964 0-5.850647-1.149292 0-2.301331 0-3.449341 0zm-23.701294 0h3.449341c0-1.949341 0-3.899964 0-5.850647-1.149353 0-2.298706 0-3.449341 0zm-11.850647 0h3.44928c0-1.949341 0-3.899964 0-5.850647-1.149292 0-2.298645 0-3.44928 0zm-11.850708 0h3.449341c0-1.949341 0-3.899964 0-5.850647-1.149353 0-2.298645 0-3.449341 0zm-11.849304 0h3.44928c0-1.949341 0-3.899964 0-5.850647-1.150635 0-2.301331 0-3.44928 0zm-23.702698 0h3.450653c0-1.949341 0-3.899964 0-5.850647-1.149322 0-2.298675 0-3.450653 0zm-11.849335 0h3.449341c0-1.949341 0-3.899964 0-5.850647-1.149322 0-2.300018 0-3.449341 0zm-11.850677 0h3.450683c0-1.949341 0-3.899964 0-5.850647-1.150665 0-2.299987 0-3.450683 0zm-11.849304 0h3.44934c0-1.949341 0-3.899964 0-5.850647-1.149353 0-2.300018 0-3.44934 0zm213.30664 0h3.450684c0-1.949341 0-3.899964 0-5.850647-1.151978 0-2.301331 0-3.450684 0zm-11.850647 0h3.450684v-5.850647h-3.450684z"/><path d="m899.762695 199.242676h3.450684c0-1.949341 0-3.899964 0-5.850647-1.150696 0-2.300049 0-3.450684 0zm-11.849365 0h3.447998c0-1.949341 0-3.899964 0-5.850647-1.149292 0-2.298645 0-3.447998 0zm-71.102661 0h3.449341c0-3.899964 0-7.799988 0-11.701294-1.150635 0-2.299988 0-3.449341 0zm-59.252014 0h3.449341c0-3.899964 0-7.799988 0-11.701294-1.149353 0-2.299988 0-3.449341 0zm-59.251953 0h3.449279v-11.701294h-3.449279zm237.006652 0h3.450623v-11.701294h-3.450623zm-59.250671 0h3.449341c0-3.899964 0-7.799988 0-11.701294-1.150696 0-2.301331 0-3.449341 0zm-11.850647 0h3.44928c0-1.949341 0-3.899964 0-5.850647-1.149292 0-2.299988 0-3.44928 0zm-11.850708 0h3.449341c0-1.949341 0-3.899964 0-5.850647-1.149353 0-2.299988 0-3.449341 0zm-11.849304 0h3.44928c0-1.949341 0-3.899964 0-5.850647-1.150635 0-2.301331 0-3.44928 0zm-11.850708 0h3.449341c0-1.949341 0-3.899964 0-5.850647-1.149292 0-2.301331 0-3.449341 0zm-23.701294 0h3.449341c0-1.949341 0-3.899964 0-5.850647-1.149353 0-2.298706 0-3.449341 0zm-11.850647 0h3.44928c0-1.949341 0-3.899964 0-5.850647-1.149292 0-2.298645 0-3.44928 0zm-11.850708 0h3.449341c0-1.949341 0-3.899964 0-5.850647-1.149353 0-2.298645 0-3.449341 0zm-11.849304 0h3.44928c0-1.949341 0-3.899964 0-5.850647-1.150635 0-2.301331 0-3.44928 0zm-23.702698 0h3.450684c0-1.949341 0-3.899964 0-5.850647-1.149353 0-2.298706 0-3.450684 0zm-11.849304 0h3.449341c0-1.949341 0-3.899964 0-5.850647-1.149353 0-2.300049 0-3.449341 0zm-11.850708 0h3.450683c0-1.949341 0-3.899964 0-5.850647-1.150634 0-2.299987 0-3.450683 0zm-11.849304 0h3.44934c0-1.949341 0-3.899964 0-5.850647-1.149353 0-2.299987 0-3.44934 0zm213.30664 0h3.450684c0-1.949341 0-3.899964 0-5.850647-1.151978 0-2.301331 0-3.450684 0zm-11.850647 0h3.450684v-5.850647h-3.450684z"/><path d="m1139.762695 199.242676h3.450684c0-1.949341 0-3.899964 0-5.850647-1.150757 0-2.300049 0-3.450684 0zm-11.849365 0h3.447998c0-1.949341 0-3.899964 0-5.850647-1.149292 0-2.298706 0-3.447998 0zm-71.102661 0h3.449341c0-3.899964 0-7.799988 0-11.701294-1.150635 0-2.300049 0-3.449341 0zm-59.252014 0h3.449341c0-3.899964 0-7.799988 0-11.701294-1.149353 0-2.299988 0-3.449341 0zm-59.251953 0h3.449279v-11.701294h-3.449279zm237.006652 0h3.450684v-11.701294h-3.450684zm-59.250732 0h3.449341c0-3.899964 0-7.799988 0-11.701294-1.150635 0-2.30127 0-3.449341 0zm-11.850586 0h3.449341c0-1.949341 0-3.899964 0-5.850647-1.149414 0-2.300049 0-3.449341 0zm-11.850708 0h3.449341c0-1.949341 0-3.899964 0-5.850647-1.149292 0-2.299927 0-3.449341 0zm-11.849365 0h3.449341c0-1.949341 0-3.899964 0-5.850647-1.150635 0-2.30127 0-3.449341 0zm-11.850586 0h3.449341c0-1.949341 0-3.899964 0-5.850647-1.149414 0-2.301392 0-3.449341 0zm-23.701416 0h3.449341c0-1.949341 0-3.899964 0-5.850647-1.149292 0-2.298584 0-3.449341 0zm-11.850586 0h3.449341c0-1.949341 0-3.899964 0-5.850647-1.149414 0-2.298706 0-3.449341 0zm-11.850708 0h3.449341c0-1.949341 0-3.899964 0-5.850647-1.149353 0-2.298645 0-3.449341 0zm-11.849304 0h3.44928c0-1.949341 0-3.899964 0-5.850647-1.150635 0-2.301331 0-3.44928 0zm-23.702698 0h3.450684c0-1.949341 0-3.899964 0-5.850647-1.149353 0-2.298706 0-3.450684 0zm-11.849304 0h3.449341c0-1.949341 0-3.899964 0-5.850647-1.149353 0-2.300049 0-3.449341 0zm-11.850708 0h3.450683c0-1.949341 0-3.899964 0-5.850647-1.150634 0-2.299987 0-3.450683 0zm-11.849304 0h3.44934c0-1.949341 0-3.899964 0-5.850647-1.149353 0-2.299987 0-3.44934 0zm213.30664 0h3.450684c0-1.949341 0-3.899964 0-5.850647-1.151978 0-2.30127 0-3.450684 0zm-11.850586 0h3.450562v-5.850647h-3.450562z"/><path d="m1379.762695 199.242676h3.450684c0-1.949341 0-3.899964 0-5.850647-1.150757 0-2.300049 0-3.450684 0zm-11.849365 0h3.447998c0-1.949341 0-3.899964 0-5.850647-1.149292 0-2.298706 0-3.447998 0zm-71.102661 0h3.449341c0-3.899964 0-7.799988 0-11.701294-1.150635 0-2.300049 0-3.449341 0zm-59.251953 0h3.449341c0-3.899964 0-7.799988 0-11.701294-1.149414 0-2.300049 0-3.449341 0zm-59.252075 0h3.44934v-11.701294h-3.44934zm237.006713 0h3.450684v-11.701294h-3.450684zm-59.250732 0h3.449341c0-3.899964 0-7.799988 0-11.701294-1.150635 0-2.30127 0-3.449341 0zm-11.850586 0h3.449341c0-1.949341 0-3.899964 0-5.850647-1.149414 0-2.300049 0-3.449341 0zm-11.850708 0h3.449341c0-1.949341 0-3.899964 0-5.850647-1.149292 0-2.299927 0-3.449341 0zm-11.849365 0h3.449341c0-1.949341 0-3.899964 0-5.850647-1.150635 0-2.30127 0-3.449341 0zm-11.850586 0h3.449341c0-1.949341 0-3.899964 0-5.850647-1.149414 0-2.301392 0-3.449341 0zm-23.701416 0h3.449341c0-1.949341 0-3.899964 0-5.850647-1.149292 0-2.298584 0-3.449341 0zm-11.850586 0h3.449341c0-1.949341 0-3.899964 0-5.850647-1.149414 0-2.298706 0-3.449341 0zm-11.850708 0h3.449341c0-1.949341 0-3.899964 0-5.850647-1.149292 0-2.298706 0-3.449341 0zm-11.849365 0h3.449341c0-1.949341 0-3.899964 0-5.850647-1.150635 0-2.30127 0-3.449341 0zm-23.702637 0h3.450684c0-1.949341 0-3.899964 0-5.850647-1.149292 0-2.298706 0-3.450684 0zm-11.849365 0h3.449341c0-1.949341 0-3.899964 0-5.850647-1.149292 0-2.299927 0-3.449341 0zm-11.850586 0h3.450683c0-1.949341 0-3.899964 0-5.850647-1.150756 0-2.300048 0-3.450683 0zm-11.849365 0h3.44934c0-1.949341 0-3.899964 0-5.850647-1.149292 0-2.300048 0-3.44934 0zm213.30664 0h3.450684c0-1.949341 0-3.899964 0-5.850647-1.151978 0-2.30127 0-3.450684 0zm-11.850586 0h3.450562v-5.850647h-3.450562z"/></g><path d="m106.358398-.367981h.000931c57.799332 0 105.089997 47.29068 105.089997 105.090698v50.585327c0 13.489777-3.87114 54.909104-16.449326 54.691956-11.79982-.203705-21.569077-.186646-38.057343-.186646h-50.584259c-57.800548 0-105.090131-47.290649-105.090131-105.089355v-.001282c0-57.800018 47.289583-105.090698 105.090131-105.090698" fill="#fbc907"/><path d="m106.358398 45.55069c32.545609 0 59.172257 26.628021 59.172257 59.172027v28.481324c0 8.440643.357559 28.635864-1.530655 29.795959-1.252716.769653-20.720001.895996-29.160004.895996h-28.481598c-32.544403 0-59.171466-26.629272-59.171466-59.173279 0-32.544006 26.627063-59.172027 59.171466-59.172027" fill="#68623c"/></g></svg>