<svg viewBox="0 0 297.55 325.2" xmlns="http://www.w3.org/2000/svg"><g stroke="#a02c2c"><g fill="#c00" stroke-width="3.135" transform="matrix(.21533552221 -.09447965873 0 .23515187201 -160.303636 214.332285)"><path d="m971.47 704.27h223.08v74.286h-223.08z"/><path d="m1087.5 784.5h223.08v74.286h-223.08z"/><path d="m971.47 543.82h223.08v74.286h-223.08z"/><path d="m1087.5 624.05h223.08v74.286h-223.08z"/><path d="m1203.5 704.27h223.08v74.286h-223.08z"/><path d="m1319.5 784.5h223.08v74.286h-223.08z"/><path d="m971.47 383.36h223.08v74.286h-223.08z"/><path d="m1087.5 463.59h223.08v74.286h-223.08z"/><path d="m1203.5 543.82h223.08v74.286h-223.08z"/><path d="m1319.5 624.05h223.08v74.286h-223.08z"/><path d="m1435.5 704.27h223.08v74.286h-223.08z"/><path d="m1551.5 784.5h223.08v74.286h-223.08z"/><path d="m971.47 222.9h223.08v74.286h-223.08z"/><path d="m1087.5 303.13h223.08v74.286h-223.08z"/><path d="m1203.5 383.36h223.08v74.286h-223.08z"/><path d="m1319.5 463.59h223.08v74.286h-223.08z"/><path d="m1435.5 543.82h223.08v74.286h-223.08z"/><path d="m1551.5 624.05h223.08v74.286h-223.08z"/><path d="m1667.5 704.27h223.08v74.286h-223.08z"/><path d="m1783.5 784.5h223.08v74.286h-223.08z"/><path d="m971.47 62.446h223.08v74.286h-223.08z"/><path d="m1087.5 142.67h223.08v74.286h-223.08z"/><path d="m1203.5 222.9h223.08v74.286h-223.08z"/><path d="m1319.5 303.13h223.08v74.286h-223.08z"/><path d="m1435.5 383.36h223.08v74.286h-223.08z"/><path d="m1551.5 463.59h223.08v74.286h-223.08z"/><path d="m1667.5 543.82h223.08v74.286h-223.08z"/><path d="m1783.5 624.05h223.08v74.286h-223.08z"/><path d="m1899.5 704.27h223.08v74.286h-223.08z"/><path d="m1203.5 62.446h223.08v74.286h-223.08z"/><path d="m1319.5 142.67h223.08v74.286h-223.08z"/><path d="m1435.5 222.9h223.08v74.286h-223.08z"/><path d="m1551.5 303.13h223.08v74.286h-223.08z"/><path d="m1667.5 383.36h223.08v74.286h-223.08z"/><path d="m1783.5 463.59h223.08v74.286h-223.08z"/><path d="m1899.5 543.82h223.08v74.286h-223.08z"/><path d="m1435.5 62.446h223.08v74.286h-223.08z"/><path d="m1551.5 142.67h223.08v74.286h-223.08z"/><path d="m1667.5 222.9h223.08v74.286h-223.08z"/><path d="m1783.5 303.13h223.08v74.286h-223.08z"/><path d="m1899.5 383.36h223.08v74.286h-223.08z"/><path d="m1667.5 62.446h223.08v74.286h-223.08z"/><path d="m1783.5 142.67h223.08v74.286h-223.08z"/><path d="m1899.5 222.9h223.08v74.286h-223.08z"/><path d="m1899.5 62.446h223.08v74.286h-223.08z"/><path d="m2015.1 784.81h107.45v74.286h-107.45z"/><path d="m2015.1 624.07h107.48v74.286h-107.48z"/><path d="m2015.1 463.62h107.48v74.286h-107.48z"/><path d="m2015.1 303.37h107.48v74.286h-107.48z"/><path d="m2015.1 142.62h107.48v74.286h-107.48z"/><path d="m971.5 784.65h107.45v74.286h-107.45z"/><path d="m971.47 623.91h107.48v74.286h-107.48z"/><path d="m971.47 463.46h107.48v74.286h-107.48z"/><path d="m971.47 303.21h107.48v74.286h-107.48z"/><path d="m971.47 142.46h107.48v74.286h-107.48z"/></g><g fill="#8f0000" stroke-width="3.2292" transform="matrix(-.2029509105 -.1187719135 0 -.23515 39.16 456.09)"><path d="m74.73 1305.7h114v74.286h-114z"/><path d="m74.696 1145h114.04v74.286h-114.04z"/><path d="m74.696 984.51h114.04v74.286h-114.04z"/><path d="m74.696 824.26h114.04v74.286h-114.04z"/><path d="m74.696 663.51h114.04v74.286h-114.04z"/><path d="m-47.964 1225.1h236.7v74.286h-236.7z"/><path d="m-47.964 1064.7h236.7v74.286h-236.7z"/><path d="m-47.964 904.2h236.7v74.286h-236.7z"/><path d="m-47.964 743.74h236.7v74.286h-236.7z"/><path d="m-47.964 583.29h236.7v74.286h-236.7z"/><path d="m-47.934 1305.9h114v74.286h-114z"/><path d="m-47.968 1145.2h114.04v74.286h-114.04z"/><path d="m-47.968 984.71h114.04v74.286h-114.04z"/><path d="m-47.968 824.46h114.04v74.286h-114.04z"/><path d="m-47.968 663.71h114.04v74.286h-114.04z"/></g><g fill="#f00" stroke-width="3" transform="matrix(.060861523 .2271384395 -.2271384395 .060861523 -163.1842235 132.57063)"><path d="m171.46-785.85-33.699-220.52 81.176-80.135 33.699 220.52z"/><path d="m84.355-699.22-33.699-220.52 81.176-80.135 33.699 220.52z"/><path d="m136.38-1015.2-33.699-220.52 81.176-80.135 33.699 220.52z"/><path d="m49.27-928.57-33.699-220.52 81.176-80.135 33.699 220.52z"/><path d="m101.4-1244.5-33.699-220.52 81.176-80.135 33.699 220.52z"/><path d="m14.295-1157.9-33.699-220.52 81.176-80.135 33.699 220.52z"/><path d="m66.276-1473.9-33.699-220.52 81.176-80.135 33.699 220.52z"/><path d="m-20.831-1387.3-33.699-220.52 81.176-80.135 33.699 220.52z"/><path d="m31.224-1703.2-33.699-220.52 81.176-80.135 33.699 220.52z"/><path d="m-55.883-1616.6-33.699-220.52 81.176-80.135 33.699 220.52z"/></g></g></svg>